<svg width="88" height="161" fill="none" xmlns="http://www.w3.org/2000/svg"><path fill-rule="evenodd" clip-rule="evenodd" d="M55.78.17V.6h-1.75v1.84l1.62.74h1v.43h-.07l15.24 7.02-.55 1.17-17.78-8.19h-5.57v12.33l6.16 11.94-1.17.58-4.99-9.67v1.29h-.43v-1.73h.2l-.92-1.8h-1.9v.85h-.44V3.61H4.3v28.45h13.1v6.03h13.95v-7.76h13.1v-1.72h3.48v9.48h11.35v.43h-1.75v2.59h1.75v.43H4.29v87.92h12.39l-.03-.07 13.85-5.25.47 1.2-10.85 4.12h1.62v.43H20v-.38l-.88.33v.05H19l-.74.28v2.3h.88v.44H3.42v25.86h81.16V132.9H63.63v-1.12h-.7v-.35H42.51v.35h-.7v1.12H30.47v-.44h1.75v-2.58h-1.75v-.43h11.34v1.12h.7v.43h20.42v-.43h.7v-1.12H83.7V41.54H70.61v-.2l-10.73 5.63-.61-1.14 8.72-4.58v-.14h.27l2.35-1.24V38.1h13.1V14.82h-8.73V3.62H70.6v-.44h1.75V.17h6.1v11.2h8.73v121.54h-.87v27.58H1.67v-27.58H.8V.17h54.98zm-4.74 144a2.84 2.84 0 01.58.08v.64h-.03a1.58 1.58 0 00-.64-.13c-.42 0-.76.14-1.02.42-.26.28-.42.7-.47 1.25.17-.11.33-.2.5-.26a2.06 2.06 0 011.08-.03 1.4 1.4 0 01.88.77c.1.21.14.46.14.75 0 .26-.04.5-.13.71a1.6 1.6 0 01-.86.9 1.65 1.65 0 01-1.25 0 1.42 1.42 0 01-.5-.34 1.87 1.87 0 01-.4-.72 4.71 4.71 0 01-.01-2.3c.08-.36.22-.67.41-.93.19-.25.42-.45.71-.59.3-.14.63-.21 1.01-.21zm-3.8 0a2.84 2.84 0 01.57.08v.64h-.03a1.58 1.58 0 00-.64-.13c-.42 0-.76.14-1.02.42-.27.28-.42.7-.47 1.25.16-.11.33-.2.5-.26a2.06 2.06 0 011.08-.03 1.4 1.4 0 01.88.77c.1.21.14.46.14.75 0 .26-.05.5-.13.71a1.6 1.6 0 01-.86.9 1.65 1.65 0 01-1.25 0 1.42 1.42 0 01-.5-.34 1.87 1.87 0 01-.4-.72 4.71 4.71 0 01-.01-2.3c.08-.36.22-.67.41-.93.18-.25.42-.45.71-.59.3-.14.63-.21 1.01-.21zm-5.47.1v2.75h.6v.54h-.6v1.72h-.65v-1.72h-2.24v-.7l2.27-2.59h.62zm2.24 4.05v.96h-.81v-.96H44zm2.55-1.69a2 2 0 00-.9.28 3.46 3.46 0 00.08 1.16c.07.21.16.37.26.48.1.1.2.18.3.23.1.04.22.06.34.06.27 0 .5-.1.66-.29.17-.2.26-.48.26-.87 0-.2-.03-.37-.09-.51a.86.86 0 00-.26-.36.69.69 0 00-.3-.14 1.8 1.8 0 00-.35-.04zm3.81 0a2 2 0 00-.9.28 3.63 3.63 0 00.08 1.16c.07.21.16.37.26.48.1.1.2.18.3.23.1.04.22.06.34.06.27 0 .5-.1.66-.29.17-.2.26-.48.26-.87 0-.2-.03-.37-.09-.51a.85.85 0 00-.26-.36.69.69 0 00-.3-.14 1.8 1.8 0 00-.35-.04zm-9.25-1.57l-1.71 1.96h1.71v-1.96zm-14.14-12.58v.43h-1.75v-.43h1.75zm-5.24 0v.43H20v-.43h1.74zm7.86 0v.43h-1.75v-.43h1.75zm-5.24 0v.43h-1.74v-.43h1.74zm0-3.02v.43h-1.74v-.43h1.74zm2.62 0v.43h-1.75v-.43h1.75zm2.62 0v.43h-1.75v-.43h1.75zm32.86-10.3c.46 0 .83.12 1.11.36.28.24.42.54.42.92a1.35 1.35 0 01-.77 1.18v.02c.3.14.51.3.67.5.15.2.23.44.23.75 0 .43-.16.79-.48 1.08-.31.29-.7.43-1.18.43-.25 0-.48-.04-.69-.1-.2-.08-.38-.19-.52-.33-.15-.13-.26-.3-.33-.48a1.57 1.57 0 01-.11-.59c0-.27.07-.52.22-.75.15-.22.36-.4.64-.54v-.02c-.25-.14-.44-.3-.56-.47a1.08 1.08 0 01-.18-.64c0-.38.15-.7.43-.94a1.6 1.6 0 011.1-.38zm5.93.01c.56 0 .97.22 1.23.65.26.44.39 1.09.39 1.96 0 .9-.13 1.56-.4 1.98-.26.42-.67.63-1.22.63-.56 0-.97-.21-1.23-.64a3.86 3.86 0 01-.4-1.96c0-.9.14-1.57.4-1.99.27-.42.67-.63 1.23-.63zm3.8 0c.57 0 .98.22 1.24.65.26.44.39 1.09.39 1.96 0 .9-.13 1.56-.4 1.98-.26.42-.67.63-1.22.63-.56 0-.97-.21-1.23-.64a3.86 3.86 0 01-.4-1.96c0-.9.14-1.57.4-1.99.27-.42.68-.63 1.23-.63zm-6.36 4.16v.96h-.81v-.96h.81zm-6.74-4.07v4.52h.9v.5h-2.47v-.5h.92v-3.36h-.92v-.46c.34 0 .6-.05.76-.15.17-.1.26-.28.28-.55h.53zm2.99 2.52a1.3 1.3 0 00-.44.45c-.1.19-.15.4-.15.62 0 .3.1.56.28.75.19.2.42.3.7.3.29 0 .52-.09.69-.25.17-.17.26-.4.26-.7 0-.2-.04-.37-.13-.49a1.32 1.32 0 00-.47-.37 16.54 16.54 0 01-.74-.31zm6.3-2.05a.77.77 0 00-.46.13.88.88 0 00-.29.4c-.06.17-.11.38-.14.64a9.3 9.3 0 000 1.77c.02.23.07.44.14.63.07.17.16.3.28.4.12.09.28.14.48.14.19 0 .34-.05.46-.14a.85.85 0 00.29-.4c.06-.16.1-.37.14-.62a8.54 8.54 0 000-1.8 2.4 2.4 0 00-.15-.63.88.88 0 00-.28-.39.76.76 0 00-.46-.13zm3.82 0a.77.77 0 00-.47.13.88.88 0 00-.29.4c-.06.17-.11.38-.14.64a9.3 9.3 0 000 1.77c.02.23.07.44.14.63.07.17.16.3.28.4.12.09.28.14.48.14.19 0 .34-.05.46-.14a.85.85 0 00.29-.4c.06-.16.11-.37.14-.62a8.57 8.57 0 000-1.8 2.4 2.4 0 00-.15-.63.88.88 0 00-.28-.39.76.76 0 00-.46-.13zm-9.74-.08a.9.9 0 00-.61.2.68.68 0 00-.24.55c0 .17.04.3.12.42.09.12.2.22.37.31a7.45 7.45 0 00.71.32c.2-.15.34-.3.4-.46.08-.16.11-.34.11-.55a.76.76 0 00-.23-.56.86.86 0 00-.63-.23zm2.04-78.54v.43h-1.74v-.43h1.74zm-2.61 0v.43h-1.75v-.43h1.75zm5.23 0v.43h-1.74v-.43h1.74zm-5.23-3.02v.43h-1.75v-.43h1.75zm7.85 0v.43h-1.75v-.43h1.75zm-2.62 0v.43h-1.74v-.43h1.74zm-2.62 0v.43h-1.74v-.43h1.74zm-48.86-4.3H4.29v4.3h11.35v-4.3zm28.8-1.73H33.08v6.03h11.34v-6.03zm3.48-5.95v1.72h-.43v-1.72h.43zm-3.05-.09v1.73h-.44v-1.73h.44zm24.84-4.3c.56 0 .97.21 1.23.65.26.43.39 1.08.39 1.95 0 .9-.13 1.56-.4 1.99-.26.42-.67.63-1.22.63-.56 0-.97-.22-1.23-.65a3.86 3.86 0 01-.4-1.96c0-.9.14-1.57.4-1.98.27-.42.67-.63 1.23-.63zm-3.81 0c.55 0 .96.21 1.23.65.26.43.39 1.08.39 1.95 0 .9-.13 1.56-.4 1.99-.26.42-.67.63-1.23.63-.55 0-.96-.22-1.23-.65a3.86 3.86 0 01-.39-1.96c0-.9.13-1.57.4-1.98.26-.42.67-.63 1.22-.63zm-6.04 0c.23 0 .43.02.6.06.17.05.33.12.47.22a1.06 1.06 0 01.45.92c0 .28-.09.52-.27.73-.19.2-.4.34-.67.4v.04l.35.1a1.12 1.12 0 01.6.6c.06.15.09.34.09.55a1.62 1.62 0 01-.45 1.13c-.15.15-.33.27-.53.35-.21.08-.45.12-.72.12a3.2 3.2 0 01-1.38-.31v-.71h.04c.15.1.34.2.58.3.24.09.48.13.72.13.14 0 .28-.02.42-.06a.8.8 0 00.35-.22c.09-.1.16-.2.2-.32.05-.12.08-.27.08-.45s-.03-.33-.08-.45a.67.67 0 00-.22-.28.87.87 0 00-.34-.14 2.2 2.2 0 00-.43-.04h-.29v-.55h.23c.3 0 .55-.08.75-.22.19-.14.28-.35.28-.63a.63.63 0 00-.27-.54.81.81 0 00-.28-.12 1.6 1.6 0 00-.7.01 2.6 2.6 0 00-.86.4h-.04v-.72c.14-.07.34-.15.6-.21.25-.06.5-.1.72-.1zm3.48 4.15v.96h-.82v-.96h.82zm6.37-3.6a.77.77 0 00-.47.14.88.88 0 00-.29.4c-.07.16-.11.38-.14.64a9.31 9.31 0 000 1.76c.02.24.07.45.14.63s.16.3.28.4c.12.1.28.14.48.14.18 0 .34-.04.46-.13a.86.86 0 00.29-.4c.06-.16.1-.37.14-.63a8.54 8.54 0 000-1.8 2.38 2.38 0 00-.15-.62.87.87 0 00-.28-.4.76.76 0 00-.46-.13zm-3.81 0a.77.77 0 00-.47.14.88.88 0 00-.29.4c-.07.16-.11.38-.14.64a9.31 9.31 0 000 1.76c.02.24.07.45.14.63.06.18.16.3.28.4.12.1.28.14.47.14.2 0 .35-.04.47-.13a.86.86 0 00.28-.4c.07-.16.12-.37.14-.63a8.57 8.57 0 000-1.8 2.38 2.38 0 00-.14-.62.87.87 0 00-.28-.4.76.76 0 00-.47-.13zm-17.98 1.25v1.73h-.43v-1.73h.43zm-3.05-.08v1.72h-.44v-1.72h.44zm-8.45-4.25c.56 0 .97.21 1.23.65.26.43.4 1.08.4 1.95 0 .9-.14 1.56-.4 1.98-.27.42-.68.63-1.23.63-.56 0-.97-.21-1.23-.64a3.86 3.86 0 01-.4-1.96c0-.9.14-1.57.4-1.99.27-.41.68-.62 1.23-.62zm-3.81 0c.56 0 .97.21 1.23.65.26.43.39 1.08.39 1.95 0 .9-.13 1.56-.4 1.98-.26.42-.67.63-1.22.63-.56 0-.97-.21-1.23-.64a3.86 3.86 0 01-.4-1.96c0-.9.14-1.57.4-1.99.27-.41.68-.62 1.23-.62zm-6.04 0c.23 0 .43.02.6.06.18.05.33.12.47.22a1.06 1.06 0 01.45.92c0 .28-.09.52-.27.73-.19.2-.4.34-.66.4v.04l.34.1a1.12 1.12 0 01.6.6 1.62 1.62 0 01-.35 1.68c-.15.15-.33.27-.54.35-.21.08-.45.11-.71.11a3.2 3.2 0 01-1.4-.3v-.72h.06c.14.1.33.2.57.3.24.1.48.14.72.14.14 0 .28-.02.42-.06a.8.8 0 00.35-.22c.1-.1.16-.2.21-.32.05-.12.07-.27.07-.45 0-.19-.03-.34-.08-.45a.67.67 0 00-.22-.28.88.88 0 00-.34-.14 2.2 2.2 0 00-.43-.04h-.29v-.56h.23c.3 0 .56-.07.75-.21.19-.15.29-.35.29-.63a.63.63 0 00-.27-.54.81.81 0 00-.29-.12 1.6 1.6 0 00-.7 0 2.6 2.6 0 00-.86.4h-.04v-.7a2.96 2.96 0 011.33-.31zm3.48 4.15v.96h-.81v-.96h.81zm6.37-3.6a.77.77 0 00-.47.13.88.88 0 00-.28.4c-.07.17-.12.39-.14.65a9.31 9.31 0 000 1.76c.01.23.06.44.13.63.07.17.16.3.28.4.12.1.28.14.48.14.19 0 .34-.05.46-.13a.86.86 0 00.29-.4c.06-.17.11-.38.14-.63a8.57 8.57 0 000-1.8 2.38 2.38 0 00-.14-.63.87.87 0 00-.29-.39.76.76 0 00-.46-.13zm-3.81 0a.77.77 0 00-.47.13.88.88 0 00-.29.4c-.06.17-.11.39-.14.65a9.31 9.31 0 000 1.76c.02.23.07.44.14.63.07.17.16.3.28.4.12.1.28.14.48.14.19 0 .34-.05.46-.13a.86.86 0 00.29-.4c.06-.17.11-.38.14-.63a8.54 8.54 0 000-1.8 2.38 2.38 0 00-.15-.63.87.87 0 00-.28-.39.76.76 0 00-.46-.13zm15.31 1.2v1.72h-.43v-1.72h.43zm-3.05-.09v1.73h-.44v-1.73h.44zm0-2.58v1.72h-.44v-1.72h.44zm14.4-15.09v.43h-1.75v-.43h1.75zm2.62 0v.43h-1.75v-.43h1.75zm2.61 0v.43h-1.74v-.43h1.74zm2.62 0v.43h-1.74v-.43h1.74zm2.62 0v.43h-1.75v-.43h1.75zM58.4.17V.6h-1.75V.17h1.75zm2.61 0V.6h-1.74V.17H61zm2.62 0V.6H61.9V.17h1.74zm2.62 0V.6H64.5V.17h1.75zm2.62 0V.6h-1.75V.17h1.75zm2.62 0V.6h-1.75V.17h1.75z" fill="#000"/><path d="M46.18 41.54H32.22v13.8h13.96v-13.8z" fill="#F7D070"/><path fill-rule="evenodd" clip-rule="evenodd" d="M33.96 43.26h4.36v4.31h-4.36v-4.3zm6.11 0h4.36v4.31h-4.36v-4.3zm0 6.04h4.36v4.3h-4.36v-4.3zm-6.1 0h4.35v4.3h-4.36v-4.3z" fill="#000"/><path d="M18.25 3.61H4.3v13.8h13.96V3.6z" fill="#F7D070"/><path fill-rule="evenodd" clip-rule="evenodd" d="M16.5 5.34H6.05v10.34H16.5V5.34zM5.17 4.48h12.22v12.06H5.16V4.48zm6.11 6.9a.87.87 0 01-.87-.87c0-.48.39-.86.87-.86s.87.38.87.86-.39.86-.87.86z" fill="#000"/><path d="M32.22 3.61h-8.73v6.9h8.73V3.6z" fill="#F7D070"/><path d="M27.85 8.05a1 1 0 001-.99 1 1 0 00-1-.99 1 1 0 00-1 1 1 1 0 001 .98zM31.34 4.48h-6.98v.98h6.98v-.98z" fill="#000"/><path fill-rule="evenodd" clip-rule="evenodd" d="M24.36 7.92l3.5.87 3.48-.87v.87l-3.49.86-3.49-.86v-.87z" fill="#000"/><path d="M25.36 5.34h-1v3.45h1V5.34zM31.47 5.34h-1v3.45h1V5.34z" fill="#000"/><path d="M13.02 41.54H4.29v6.9h8.73v-6.9z" fill="#F7D070"/><path d="M8.65 45.98a1 1 0 001-1 1 1 0 00-1-.98 1 1 0 00-1 .99 1 1 0 001 .99zM12.14 42.4H5.16v1h6.98v-1z" fill="#000"/><path fill-rule="evenodd" clip-rule="evenodd" d="M5.16 45.85l3.5.86 3.48-.86v.86l-3.49.86-3.49-.86v-.86z" fill="#000"/><path d="M6.16 43.26h-1v3.45h1v-3.45zM12.27 43.26h-1v3.45h1v-3.45z" fill="#000"/><path d="M15.64 20.85H4.29v6.9h11.35v-6.9z" fill="#F7D070"/><path fill-rule="evenodd" clip-rule="evenodd" d="M12.15 21.71a2.6 2.6 0 012.61 2.59 2.6 2.6 0 01-2.61 2.59H6.9a2.6 2.6 0 01-2.6-2.59 2.6 2.6 0 012.6-2.59h5.25zm.14.87H6.18c-.96 0-1.74.77-1.74 1.72s.78 1.72 1.74 1.72h6.11c.97 0 1.75-.77 1.75-1.72s-.78-1.72-1.75-1.72z" fill="#000"/><path d="M12.14 25.29a1 1 0 001-.99 1 1 0 00-1-.99 1 1 0 00-1 .99 1 1 0 001 .99zM7.78 20.85H4.3v6.9h3.5v-6.9zM39.84 87.22h-4.2v-.92a22.33 22.33 0 001.7-1.49c.29-.29.49-.55.61-.76.13-.22.2-.45.2-.68 0-.27-.09-.47-.25-.6a.97.97 0 00-.66-.22c-.15 0-.28.02-.41.06a3.24 3.24 0 00-.73.31l-.2.14h-.12v-1.23a4.37 4.37 0 011.74-.35c.69 0 1.2.14 1.55.44.35.3.52.72.52 1.26 0 .33-.08.66-.24.98-.16.32-.42.66-.79 1.03a9.58 9.58 0 01-1.14.97h2.42v1.06zm5.07-1.31h-.77v1.33h-1.39V85.9h-2.51v-1.05l2.46-3.28h1.44v3.31h.77v1.02zm-2.16-1.02v-1.92L41.3 84.9h1.45zm4.22 2.33h-1.35v-1.49h1.35v1.5zm5.25-2.82c0 .49-.04.92-.12 1.28-.08.37-.2.67-.38.92-.17.24-.4.43-.67.55a2.5 2.5 0 01-1.03.2c-.4 0-.74-.07-1.02-.2-.28-.12-.5-.3-.68-.56a2.5 2.5 0 01-.38-.91 6 6 0 01-.12-1.27c0-.5.04-.93.12-1.29.08-.35.2-.65.39-.9.18-.26.4-.44.69-.57a2.5 2.5 0 011-.18c.41 0 .76.06 1.03.2.28.12.5.3.68.56.17.25.3.55.38.92.07.36.11.78.11 1.25zm-1.44 0c0-.7-.05-1.18-.17-1.47-.12-.28-.31-.42-.59-.42-.27 0-.47.14-.58.42-.12.29-.18.78-.18 1.48 0 .69.06 1.17.18 1.46.11.29.3.43.58.43.28 0 .47-.14.59-.43s.17-.78.17-1.47zm6.44 0c0 .49-.04.92-.12 1.28-.07.37-.2.67-.37.92-.18.24-.4.43-.68.55a2.5 2.5 0 01-1.03.2c-.4 0-.74-.07-1.02-.2-.28-.12-.5-.3-.68-.56a2.5 2.5 0 01-.38-.91 6 6 0 01-.12-1.27c0-.5.04-.93.12-1.29.08-.35.2-.65.39-.9.18-.26.4-.44.69-.57a2.5 2.5 0 011-.18c.41 0 .76.06 1.03.2.28.12.5.3.68.56.17.25.3.55.38.92.07.36.11.78.11 1.25zm-1.43 0c0-.7-.06-1.18-.18-1.47-.12-.28-.31-.42-.59-.42-.27 0-.47.14-.58.42-.12.29-.18.78-.18 1.48 0 .69.06 1.17.18 1.46.11.29.3.43.58.43.28 0 .47-.14.59-.43s.18-.78.18-1.47z" fill="#000"/><path d="M54.03 79.47H33.1v1.72h20.94v-1.72z" fill="#F7D070"/><g opacity=".24"><g opacity=".24"><path opacity=".24" d="M59.49 78.3c7.11 0 12.87-5.7 12.87-12.74S66.6 52.8 59.5 52.8c-7.11 0-12.88 5.71-12.88 12.75S52.38 78.3 59.5 78.3z" fill="#FFC107"/><path opacity=".24" fill-rule="evenodd" clip-rule="evenodd" d="M54.22 62.08a1.87 1.87 0 011.5.67 2.33 2.33 0 01.5 1.4c-.01.26-.06.5-.15.75s-.22.47-.4.67a2 2 0 01-.61.48c-.25.13-.53.19-.84.19h-1.99v2.8h-.94v-6.96h2.93zm5.67 0a1.84 1.84 0 011.86 1.34c.08.24.11.5.11.74a2.14 2.14 0 01-.7 1.58c-.16.14-.33.25-.52.33l1.3 2.96H60.9l-1.18-2.8h-1.79v2.8h-.92v-6.95h2.87zm5.27 0c.36 0 .7.06 1 .17.32.11.59.27.81.47.22.2.4.44.52.73.13.28.2.6.2.94v2.35c0 .35-.07.67-.2.95-.13.28-.3.52-.53.72-.23.2-.5.35-.8.46-.31.11-.64.16-1 .16-.37 0-.7-.05-1.02-.16-.3-.1-.57-.26-.8-.46-.22-.2-.39-.44-.5-.72-.13-.28-.2-.6-.2-.95v-2.35c0-.35.07-.66.2-.94.11-.29.28-.53.5-.73.23-.2.5-.36.8-.47.31-.11.65-.17 1.02-.17zm0 .84c-.22 0-.42.03-.61.1a1.3 1.3 0 00-.85.76c-.08.2-.12.44-.12.72v2.13c0 .28.04.52.12.71a1.33 1.33 0 00.86.76 2.05 2.05 0 001.21 0 1.3 1.3 0 00.86-.76c.08-.2.12-.43.12-.7V64.5c0-.28-.04-.52-.12-.72a1.35 1.35 0 00-.85-.77c-.2-.06-.4-.09-.62-.09zm-11.14.01h-1.79v2.45h1.8c.36 0 .66-.1.9-.32.23-.22.35-.52.35-.9s-.12-.67-.35-.9a1.27 1.27 0 00-.9-.33zm5.68 0h-1.76v2.45h1.76c.36 0 .66-.1.9-.32.22-.22.34-.52.34-.9s-.12-.67-.35-.9a1.23 1.23 0 00-.89-.33z" fill="#453738"/></g><g opacity=".24" fill-rule="evenodd" clip-rule="evenodd"><path opacity=".24" d="M18 65.75h8.19v15.06h9.37V65.75h8.19v37.07h-8.2v-13.9H26.2v13.9h-8.2V65.75z" fill="#CDC6C1"/><path opacity=".24" d="M18 84.87l8.19 4.05-8.2 13.9V84.87zm17.56-4.06v8.11l-9.37-8.1h9.37zm8.19-15.06v15.06l-8.2-15.06h8.2z" fill="#938784"/><path opacity=".24" d="M43.75 92.37v10.45h-8.2l8.2-10.45zm0-11.56v11.56l-8.2-3.45 8.2-8.1zm-17.56 0v8.11l-8.2-4.05 8.2-4.06zm0-15.06v15.06l-8.2-7.53 8.2-7.53z" fill="#AEA5A3"/></g></g></svg>